<svg width="1334" height="1277" viewBox="0 0 1334 1277" fill="none" xmlns="http://www.w3.org/2000/svg">
<path id="Ellipse 1" d="M1331 1061.5C1331 1179.49 1239.36 1275 1126.5 1275C1013.64 1275 922 1179.49 922 1061.5C922 943.506 1013.64 848 1126.5 848C1239.36 848 1331 943.506 1331 1061.5Z" stroke="#DE1313" stroke-width="4"/>
<rect id="Rectangle 1" x="835.373" y="694.356" width="427" height="373" transform="rotate(-12.0282 835.373 694.356)" stroke="black" stroke-width="4"/>
<rect id="desert" x="3.46259" y="138.927" width="457" height="578" transform="rotate(-17.2816 3.46259 138.927)" stroke="#351CCC" stroke-width="4"/>
<g id="kos&#195;&#161;rkulso">
<path id="Vector 1" d="M130.054 993.976C118.697 996.192 117.249 1002.83 109.877 1011.98C105.535 1017.37 99.7281 1023.62 94.0554 1027.65C81.5737 1036.52 70.6119 1045.2 59.1455 1055.81C50.7642 1063.57 44.7608 1074.46 34.0337 1079.55C26.0701 1083.32 21.3863 1097.55 12.4781 1098.49C10.0679 1098.74 4.38983 1103.46 7.90571 1105.02C10.8784 1106.34 13.1466 1106.33 16.3973 1106.33C23.4474 1106.33 31.6573 1105.21 38.4609 1107.27C46.3342 1109.65 53.5179 1113.86 61.2503 1116.63C67.579 1118.9 74.5667 1119.38 81.1365 1120.7C87.0949 1121.89 92.7657 1122.98 98.8455 1123.31C102.902 1123.53 106.145 1125.92 110.385 1125.92C125.821 1125.92 140.623 1129.84 156.182 1129.84" stroke="#DB0001" stroke-width="5" stroke-linecap="round" stroke-linejoin="round"/>
<path id="Vector 2" d="M24.2357 1094.57C38.3086 1097.31 52.6763 1094.07 66.7662 1095.95C76.4643 1097.24 84.8856 1099.79 94.7812 1099.79C105.89 1099.79 116.531 1103.71 127.441 1103.71" stroke="#DB0001" stroke-width="5" stroke-linecap="round" stroke-linejoin="round"/>
<path id="Vector 3" d="M5.94617 1103.71C6.86424 1109.57 6.0553 1117.28 8.55896 1122.73C10.3606 1126.65 11.1658 1127.45 10.1557 1131.87C8.70761 1138.21 11.1718 1146.9 11.1718 1153.65C11.1718 1158.86 10.9856 1164.11 11.1718 1169.32C11.3726 1174.95 14.9493 1179.63 15.0909 1185.73C15.2034 1190.56 19.0101 1194.26 19.0101 1199.08C19.0101 1203.53 21.4057 1206.93 21.6229 1210.84C21.8718 1215.32 25.5421 1218.3 25.5421 1222.89C25.5421 1229.74 25.6897 1230.23 32.5 1233.05C43.909 1237.77 60.281 1233.05 72.5 1233.05C81.6448 1233.05 89.3552 1233.05 98.5 1233.05C103.088 1233.05 110 1230 116.5 1230C121 1230 128.715 1230.13 133.5 1230C139.93 1229.82 147.995 1228.83 153.5 1227C162.01 1224.16 177.222 1225 186.5 1225" stroke="#DB0001" stroke-width="5" stroke-linecap="round" stroke-linejoin="round"/>
<path id="Vector 4" d="M46 1095C55.6469 1088.33 65.4731 1081.7 74.9847 1075.25C78.4222 1072.92 78.8953 1067.95 82.6379 1065.8C90.3575 1061.35 95.6404 1055.56 100.224 1047.06C103.65 1040.7 115.987 1034.07 121.881 1029.67C123.751 1028.28 124.883 1022.81 125.138 1020.56C125.617 1016.34 129.66 1018.78 131 1016" stroke="#DB0001" stroke-width="5" stroke-linecap="round" stroke-linejoin="round"/>
</g>
<g id="vonalka">
<path id="Vector 5" d="M126.135 1037.09C126.135 1046.62 126.488 1055.99 126.135 1065.54C125.959 1070.27 126.138 1081.5 123.522 1085.42" stroke="black" stroke-width="4" stroke-linecap="round" stroke-linejoin="round"/>
<path id="Vector 6" d="M120.909 1046.23C117.891 1062.45 123.154 1081.77 116.99 1097.18" stroke="black" stroke-width="4" stroke-linecap="round" stroke-linejoin="round"/>
<path id="Vector 7" d="M109.151 1060.6C110.769 1070.71 107.956 1078.51 105.232 1088.04C104.449 1090.78 102.62 1091.84 102.62 1094.86C102.62 1098.08 103.117 1101.01 101.313 1103.71" stroke="black" stroke-width="4" stroke-linecap="round" stroke-linejoin="round"/>
<path id="Vector 8" d="M93.4747 1063.22C95.0176 1073.63 94.7811 1084.08 94.7811 1094.57" stroke="black" stroke-width="4" stroke-linecap="round" stroke-linejoin="round"/>
<path id="Vector 9" d="M73.8788 1078.89C75.6353 1083.61 76.5867 1088.42 77.798 1093.26" stroke="black" stroke-width="4" stroke-linecap="round" stroke-linejoin="round"/>
<path id="Vector 10" d="M116.99 1140.29C116.028 1149.31 114.685 1159.13 115.756 1168.24C116.176 1171.81 115.226 1176.66 115.974 1179.78C116.757 1183.04 113.549 1182.85 113.143 1186.09C112.669 1189.88 113.071 1193.95 113.071 1197.77" stroke="black" stroke-width="4" stroke-linecap="round" stroke-linejoin="round"/>
<path id="Vector 11" d="M101.313 1133.76C101.313 1147.74 104.252 1166.49 100.66 1180.14C97.9789 1190.33 101.284 1206.63 94.7811 1214.76" stroke="black" stroke-width="4" stroke-linecap="round" stroke-linejoin="round"/>
<path id="Vector 12" d="M83.0236 1131.15C85.8865 1151.9 88.4342 1175.01 81.7172 1195.16" stroke="black" stroke-width="4" stroke-linecap="round" stroke-linejoin="round"/>
<path id="Vector 13" d="M63.4276 1137.68C68.2128 1156.22 70.848 1180.53 63.4276 1199.08" stroke="black" stroke-width="4" stroke-linecap="round" stroke-linejoin="round"/>
<path id="Vector 14" d="M41.2189 1131.15C44.858 1151.16 45.2707 1177.91 35.9933 1196.47" stroke="black" stroke-width="4" stroke-linecap="round" stroke-linejoin="round"/>
</g>
<path id="Vector 15" d="M9 1121C19.2886 1121 29.5884 1122.42 39.4918 1122.42C50.9069 1122.42 54.5125 1126.13 62.9818 1129.5C70.4547 1132.48 78.9879 1129.38 86.6976 1131.23C102.746 1135.08 116.261 1138 133 1138" stroke="#DB0001" stroke-width="5" stroke-linecap="round" stroke-linejoin="round"/>
<g id="f&#195;&#169;nyke">
<line id="Line 1" y1="-3.5" x2="163.284" y2="-3.5" transform="matrix(0.613339 -0.78982 0.96031 0.278937 792 611.965)" stroke="#00FF75" stroke-width="7"/>
<line id="Line 2" y1="-3.5" x2="144.638" y2="-3.5" transform="matrix(0.94234 -0.334656 0.332609 0.943065 816.474 635.321)" stroke="#00FF75" stroke-width="7"/>
<line id="Line 3" y1="-3.5" x2="143.354" y2="-3.5" transform="matrix(0.99563 0.0933877 -0.433931 0.900946 820.506 671.796)" stroke="#00FF75" stroke-width="7"/>
<line id="Line 4" y1="-3.5" x2="177.954" y2="-3.5" transform="matrix(0.9795 0.201443 -0.547192 0.837007 834.694 737.154)" stroke="#00FF75" stroke-width="7"/>
</g>
</svg>
