<svg width="1289" height="770" viewBox="0 0 1289 770" fill="none" xmlns="http://www.w3.org/2000/svg">
<g id="undraw_partying_p92d 1">
<rect width="1289" height="770" fill="white"/>
<path id="Vector" d="M226.362 461.343L223.943 460.248C233.844 449.622 238.01 436.891 235.697 424.324C233.384 411.758 224.744 400.171 211.315 391.629C210.147 390.886 208.942 390.165 207.738 389.444C204.206 387.489 201.012 385.255 198.221 382.786C194.803 379.519 192.205 374.445 195.159 370.003L197.775 370.849C195.346 374.499 197.617 378.798 200.551 381.603C203.21 383.947 206.252 386.066 209.616 387.92C210.842 388.655 212.069 389.388 213.259 390.146C227.192 399.009 236.157 411.031 238.556 424.07C240.956 437.108 236.634 450.317 226.362 461.343V461.343Z" fill="#E2DFF5"/>
<path id="Vector_2" d="M767.208 201.157L764.789 200.063C774.691 189.436 778.856 176.706 776.544 164.139C774.231 151.573 765.591 139.986 752.163 131.444C750.991 130.699 749.785 129.977 748.578 129.256C745.049 127.301 741.857 125.068 739.067 122.601C735.65 119.334 733.051 114.26 736.006 109.817L738.622 110.663C736.194 114.314 738.463 118.612 741.398 121.418C744.056 123.76 747.096 125.879 750.456 127.731C751.685 128.467 752.914 129.203 754.107 129.961C768.04 138.824 777.005 150.846 779.404 163.884C781.804 176.923 777.482 190.132 767.208 201.157H767.208Z" fill="#E2DFF5"/>
<path id="Vector_3" d="M1209.19 649.364C1195.12 627.111 1170.17 609.06 1138.79 598.427C1107.4 587.794 1071.61 585.269 1037.81 591.302C1034.88 591.824 1031.91 592.421 1029.04 592.998C1021.03 594.61 1012.74 596.277 1004.22 596.571C993.566 596.933 979.763 594.633 973 587.061L975.448 586C981.551 592.833 994.244 594.906 1004.07 594.564C1012.26 594.282 1020.39 592.647 1028.24 591.068C1031.13 590.487 1034.12 589.884 1037.09 589.356C1071.56 583.204 1108.05 585.778 1140.05 596.62C1172.05 607.461 1197.49 625.865 1211.83 648.554L1209.19 649.364Z" fill="#575A89"/>
<path id="Vector_4" d="M501.772 320L499.244 319.707C504.896 300.506 499.503 280.669 484.025 263.73C468.548 246.792 443.99 233.851 414.728 227.214C412.199 226.64 409.58 226.102 407.048 225.581C399.98 224.128 392.672 222.626 386.178 220.138C378.06 217.028 369.551 211.156 370.018 204L372.586 204.066C372.165 210.522 380.023 215.891 387.518 218.761C393.757 221.152 400.92 222.624 407.848 224.048C410.398 224.573 413.036 225.115 415.602 225.697C445.436 232.464 470.474 245.658 486.255 262.928C502.035 280.198 507.534 300.423 501.772 320Z" fill="#575A89"/>
<path id="Vector_5" d="M259.691 352.587C247.532 368.212 224.484 375.235 205.671 369.856C205.404 369.782 205.135 369.703 204.874 369.622L204.574 370.346C204.564 370.373 204.551 370.4 204.535 370.426C204.36 370.855 204.04 371.249 203.603 371.575C203.166 371.901 202.624 372.149 202.021 372.3C201.418 372.451 200.773 372.499 200.138 372.442C199.503 372.384 198.897 372.221 198.37 371.968L193.547 369.763C192.999 369.509 192.529 369.181 192.168 368.797C191.807 368.413 191.561 367.983 191.445 367.531C191.33 367.079 191.347 366.616 191.496 366.169C191.645 365.722 191.923 365.301 192.313 364.931L192.382 364.87L193.191 364.15L193.371 363.987C179.171 353.696 176.69 335.334 188.567 320.07C202.043 302.752 228.885 295.992 248.528 304.972C268.17 313.952 273.166 335.268 259.691 352.587Z" fill="#E2DFF5"/>
<g id="balkislany">
<path id="Vector_6" d="M1165 659.809L1166 677L1187 675.19L1185 658L1165 659.809Z" fill="#FBBEBE"/>
<path id="Vector_7" d="M1086 640.714L1086.95 657L1107 655.286L1105.09 639L1086 640.714Z" fill="#FBBEBE"/>
<path id="Vector_8" d="M1179.47 429L1104.62 440.616L1099.7 563.924L1080 642.555L1111.52 655.065L1142.05 577.327L1152.88 508.525L1160.76 577.327L1161.74 664L1210 661.319L1198.46 491.593C1196.98 469.76 1190.51 448.446 1179.47 429V429Z" fill="#2F2E41"/>
<path id="Vector_9" d="M1167.83 671.094C1167.83 671.094 1160.94 663.911 1160.94 666.604C1160.94 669.298 1157 695.337 1157 695.337C1157 695.337 1183.58 702.52 1183.58 707.01C1183.58 711.499 1221.97 718.682 1220.98 709.703C1220 700.724 1186.53 666.604 1186.53 666.604C1186.53 666.604 1172.75 664.809 1167.83 671.094Z" fill="#2F2E41"/>
<path id="Vector_10" d="M1089.67 651.313C1089.67 651.313 1087.56 642.054 1086.09 644.373C1084.62 646.691 1067 667.349 1067 667.349C1067 667.349 1086.31 685.396 1083.87 689.261C1081.42 693.125 1111.06 716.446 1115.09 708.277C1119.12 700.108 1108.46 655.797 1108.46 655.797C1108.46 655.797 1097.39 648.1 1089.67 651.313Z" fill="#2F2E41"/>
<path id="Vector_11" d="M1088 330.215L1142.75 335L1161 289.541L1108.59 278L1088 330.215Z" fill="#2F2E41"/>
<path id="Vector_12" d="M1132.5 321C1147.69 321 1160 309.807 1160 296C1160 282.193 1147.69 271 1132.5 271C1117.31 271 1105 282.193 1105 296C1105 309.807 1117.31 321 1132.5 321Z" fill="#FBBEBE"/>
<path id="Vector_13" d="M1117.45 311C1117.45 311 1117.45 327.841 1102.71 334.932C1087.97 342.023 1138.09 350 1138.09 350L1143 334.932C1143 334.932 1128.26 328.727 1141.03 314.545L1117.45 311Z" fill="#FBBEBE"/>
<path id="Vector_14" d="M1140.7 330.791C1140.7 330.791 1122.74 340.953 1107.69 331.841L1101.47 330.791L1082.83 334.374L1074 364.83L1107.35 440.969C1107.35 440.969 1165.23 449.926 1177 430.22L1170.13 349.602L1151.5 329L1140.7 330.791Z" fill="#575A89"/>
<path id="Vector_15" d="M1149.72 331.594L1182.01 290.568L1179.08 286.108L1137 266.486V254L1202.56 270.054L1207 276.461L1168.31 353L1149.72 331.594Z" fill="#575A89"/>
<path id="Vector_16" d="M1085 334.725L1083.02 333.828L1033.63 332.035L1071.17 302.448L1059.31 289L1003 327.552V336.517L1083.02 367L1085 334.725Z" fill="#575A89"/>
<path id="Vector_17" d="M1059 293.481L1065.73 290.019C1065.73 290.019 1080.15 272.712 1085.92 279.635C1091.69 286.558 1072.46 299.538 1072.46 299.538L1061.88 303L1059 293.481Z" fill="#FBBEBE"/>
<path id="Vector_18" d="M1140 256.2L1129.09 251C1129.09 251 1096.37 253.6 1100.33 259.667C1104.3 265.733 1127.11 260.533 1127.11 260.533L1140 264V256.2Z" fill="#FBBEBE"/>
<path id="Vector_19" d="M1111.86 272.023C1111.86 272.023 1099.24 275.837 1098.6 290.9C1098.53 293.31 1098.83 295.716 1099.47 298.053C1100.18 300.784 1100.64 306.659 1095.13 314.337C1091.44 319.406 1088.07 324.66 1085.04 330.074L1085 330.146L1098.86 331.716L1101.81 310.886C1103.24 300.787 1106.3 290.933 1110.9 281.642L1111 281.448C1111 281.448 1117.06 291.659 1129.19 291.659L1124.86 287.732C1124.86 287.732 1143.92 294.801 1150.86 294.801C1150.86 294.801 1156.06 297.943 1150.86 302.655C1145.66 307.368 1135.26 318.364 1141.33 327.004C1147.39 335.644 1142.19 338 1142.19 338L1151.72 333.287L1156.06 330.931V334.073L1178.59 331.716C1178.59 331.716 1184.65 330.931 1171.65 317.579C1171.65 317.579 1168.22 312.393 1169.72 307.921C1170.96 304.522 1171.28 300.906 1170.67 297.372C1167.76 282.647 1156.33 253.373 1111.86 272.023Z" fill="#2F2E41"/>
</g>
<path id="Vector_20" d="M717.904 713.869C717.731 713.672 713.649 708.923 712.234 699.061C710.935 690.014 711.77 674.764 723.122 653.491C744.626 613.192 718.166 580.676 717.895 580.352L719.201 579.825C724.296 586.618 727.976 593.882 730.131 601.398C735.46 618.9 733.52 637.097 724.536 653.858C703.068 694.089 719.028 713.133 719.192 713.321L717.904 713.869Z" fill="#E2DFF5"/>
<path id="Vector_21" d="M709.495 577.986C714.912 577.986 719.302 574.927 719.302 571.153C719.302 567.379 714.912 564.32 709.495 564.32C704.079 564.32 699.688 567.379 699.688 571.153C699.688 574.927 704.079 577.986 709.495 577.986Z" fill="#E2DFF5"/>
<path id="Vector_22" d="M740.426 603.215C745.842 603.215 750.233 600.156 750.233 596.382C750.233 592.609 745.842 589.549 740.426 589.549C735.009 589.549 730.618 592.609 730.618 596.382C730.618 600.156 735.009 603.215 740.426 603.215Z" fill="#E2DFF5"/>
<path id="Vector_23" d="M719.302 620.035C724.719 620.035 729.11 616.976 729.11 613.202C729.11 609.428 724.719 606.369 719.302 606.369C713.886 606.369 709.495 609.428 709.495 613.202C709.495 616.976 713.886 620.035 719.302 620.035Z" fill="#E2DFF5"/>
<path id="Vector_24" d="M744.952 634.227C750.368 634.227 754.759 631.167 754.759 627.394C754.759 623.62 750.368 620.561 744.952 620.561C739.536 620.561 735.145 623.62 735.145 627.394C735.145 631.167 739.536 634.227 744.952 634.227Z" fill="#E2DFF5"/>
<path id="Vector_25" d="M711.758 656.303C717.175 656.303 721.566 653.243 721.566 649.47C721.566 645.696 717.175 642.637 711.758 642.637C706.342 642.637 701.951 645.696 701.951 649.47C701.951 653.243 706.342 656.303 711.758 656.303Z" fill="#E2DFF5"/>
<path id="Vector_26" d="M723.829 714.12C723.829 714.12 714.022 697.301 743.443 684.686L723.829 714.12Z" fill="#E2DFF5"/>
<path id="Vector_27" d="M711.767 713.815C711.767 713.815 707.304 695.929 672.759 696.082L711.767 713.815Z" fill="#E2DFF5"/>
<g id="jobbkisllany">
<path id="Vector_28" opacity="0.2" d="M173.363 424.619C176.737 423.002 178.894 420.881 178.179 419.88C177.465 418.879 174.151 419.378 170.777 420.994C167.403 422.61 165.247 424.732 165.961 425.733C166.675 426.733 169.989 426.235 173.363 424.619Z" fill="white"/>
<path id="Vector_29" d="M167.302 463.152C167.296 463.171 167.289 463.189 167.28 463.206L160.293 459.45L160.758 458.964L167.933 462.821C167.78 462.771 167.625 462.717 167.475 462.663L167.302 463.152Z" fill="#575A89"/>
<path id="Vector_30" d="M75.8049 541.627L80.7703 572.499C80.7703 572.499 65.0466 610.917 81.5979 647.964L87.3908 674.72H108.907L111.39 665.801C111.39 665.801 101.459 658.941 101.459 643.162L109.735 572.499L111.39 536.138L75.8049 541.627Z" fill="#A0616A"/>
<path id="Vector_31" d="M94.9345 671.944C94.9345 671.944 86.6506 667.875 85.8222 671.944C84.9938 676.013 75.0531 695 84.1655 695C93.2778 695 108.189 691.609 108.189 691.609C108.189 691.609 117.301 686.185 128.07 686.185C138.839 686.185 141.325 675.335 139.668 672.622C138.011 669.91 133.869 665.841 129.727 666.519C126.718 666.953 123.67 667.18 120.615 667.197L107.538 661.876C107.538 661.876 105.704 672.622 94.9345 671.944Z" fill="#2F2E41"/>
<path id="Vector_32" d="M128.638 535.595L150.093 561.2C150.093 561.2 157.295 601.373 192.472 628.081L212.393 649.708L231.547 641.546L228.836 632.663C228.836 632.663 216.21 630.321 207.503 616.272L175.878 550.214L157.287 517.21L128.638 535.595Z" fill="#A0616A"/>
<path id="Vector_33" d="M217.462 641.545C217.462 641.545 207.818 641.025 209.353 644.959C210.889 648.893 212.649 669.527 220.758 666.113C228.867 662.699 240.242 654.094 240.242 654.094C240.242 654.094 245.321 645.849 254.904 641.814C264.487 637.78 260.638 627.186 257.648 625.391C254.659 623.596 248.7 621.524 245.393 623.68C242.958 625.193 240.372 626.537 237.663 627.697L223.053 627.857C223.053 627.857 227.424 638.115 217.462 641.545Z" fill="#2F2E41"/>
<path id="Vector_34" d="M100.179 359.025C113.039 359.025 123.463 350.399 123.463 339.758C123.463 329.118 113.039 320.492 100.179 320.492C87.32 320.492 76.8954 329.118 76.8954 339.758C76.8954 350.399 87.32 359.025 100.179 359.025Z" fill="#A0616A"/>
<path id="Vector_35" d="M82.3569 347.993L63.2944 369.042L86.501 375.832L97.2754 356.141L82.3569 347.993Z" fill="#A0616A"/>
<path id="Vector_36" d="M116.097 377.027L115.143 376.299C112.066 373.952 108.406 372.189 104.419 371.131C100.432 370.074 96.2135 369.749 92.0585 370.178C92.0585 370.178 93.4683 360.925 69.9678 361.785L58.9013 369.493C58.9013 369.493 43.5661 382.163 47.7107 401.34C51.8554 420.516 52.2699 468.799 52.2699 468.799L64.7038 553.039C64.7038 553.039 158.373 549.614 175.78 518.11L122.729 426.337L116.097 377.027Z" fill="#2F2E41"/>
<path id="Vector_37" d="M94.7177 397.557L103.832 438.525L141.947 490.417C141.947 490.417 141.947 514.997 157.69 512.266C173.434 509.535 156.033 487.003 156.033 487.003L122.061 431.697L115.432 397.557H94.7177Z" fill="#A0616A"/>
<path id="Vector_38" d="M92.4181 380.657L94.056 403.641L119.439 401.583L115.348 378.629L92.4181 380.657Z" fill="#2F2E41"/>
<path id="Vector_39" d="M124.596 334.191C124.596 334.191 138.334 312.562 105.919 311.276C105.919 311.276 86.5488 301.923 70.2091 321.139L53.324 341.355L57.356 340.867L57.6665 344.14L62.6068 346.904L66.6341 343.818L65.701 348.754L108.677 365.785C108.677 365.785 93.0326 350.117 100.484 332.691L102.814 337.125L124.596 334.191Z" fill="#2F2E41"/>
</g>
<path id="Vector_40" d="M1063.89 528.17C1054.05 562.001 1023.51 584.686 992.733 582.82C992.298 582.8 991.855 582.768 991.425 582.731L991.361 584.186C991.36 584.241 991.355 584.296 991.344 584.35C991.281 585.24 991.001 586.106 990.524 586.886C990.048 587.666 989.387 588.341 988.589 588.862C987.792 589.383 986.877 589.737 985.91 589.899C984.944 590.061 983.949 590.027 982.999 589.8L974.673 587.807C973.736 587.583 972.864 587.177 972.117 586.616C971.371 586.056 970.768 585.354 970.352 584.56C969.935 583.766 969.714 582.9 969.704 582.02C969.694 581.141 969.896 580.271 970.295 579.469L970.367 579.328L971.19 577.663L971.371 577.288C944.857 564.453 931.504 531.829 941.111 498.781C952.012 461.286 988.328 437.471 1022.24 445.587C1056.14 453.703 1074.79 490.675 1063.89 528.17Z" fill="#6C63FF"/>
<path id="Vector_41" opacity="0.2" d="M279.08 486.907C291.75 478.01 298.556 468.403 294.281 465.448C290.007 462.493 276.271 467.309 263.601 476.205C250.931 485.101 244.126 494.709 248.4 497.664C252.674 500.619 266.41 495.803 279.08 486.907Z" fill="white"/>
<path id="Vector_42" d="M1061.09 191.232C1095.02 208.785 1108.52 238.021 1094.55 259.9C1094.36 260.211 1094.16 260.524 1093.95 260.826L1095.55 261.32C1095.61 261.337 1095.67 261.358 1095.72 261.382C1096.68 261.677 1097.53 262.132 1098.22 262.714C1098.9 263.295 1099.4 263.986 1099.68 264.735C1099.95 265.484 1100 266.27 1099.8 267.034C1099.61 267.798 1099.19 268.518 1098.58 269.141L1093.14 274.603C1092.51 275.222 1091.71 275.734 1090.79 276.106C1089.88 276.477 1088.87 276.7 1087.84 276.76C1086.8 276.82 1085.76 276.716 1084.78 276.454C1083.8 276.192 1082.91 275.778 1082.16 275.239L1082.03 275.143L1080.49 274.032L1080.14 273.785C1055.59 289.187 1014.06 288.92 980.927 271.774C943.33 252.32 930.799 218.524 952.939 196.28C975.079 174.037 1023.5 171.778 1061.09 191.232Z" fill="#6C63FF"/>
<path id="Vector_43" opacity="0.2" d="M770.288 186.152C775.374 184.46 773.777 174.742 766.721 164.447C759.664 154.152 749.821 147.178 744.735 148.87C739.649 150.563 741.246 160.28 748.302 170.575C755.358 180.87 765.202 187.844 770.288 186.152Z" fill="white"/>
<path id="Vector_44" d="M390.331 130.66C410.503 155.393 405.951 183.701 381.194 197.673C380.849 197.874 380.49 198.072 380.134 198.26L381.273 199.148C381.317 199.181 381.358 199.216 381.394 199.253C382.074 199.784 382.573 200.417 382.852 201.105C383.132 201.793 383.184 202.516 383.005 203.22C382.826 203.924 382.42 204.59 381.82 205.167C381.219 205.743 380.439 206.216 379.54 206.548L371.629 209.451C370.716 209.774 369.717 209.96 368.696 209.994C367.675 210.029 366.655 209.912 365.703 209.651C364.75 209.391 363.886 208.992 363.166 208.481C362.446 207.97 361.886 207.359 361.523 206.686L361.462 206.568L360.725 205.185L360.556 204.875C330.072 210.3 293.381 197.632 273.677 173.471C251.321 146.059 259.31 114.257 291.527 102.434C323.744 90.6105 367.976 103.248 390.331 130.66Z" fill="#6C63FF"/>
<path id="Vector_45" opacity="0.2" d="M430.76 65.0722C430.79 53.6765 426.249 44.4327 420.619 44.4257C414.99 44.4187 410.402 53.6511 410.373 65.0469C410.344 76.4427 414.884 85.6865 420.514 85.6935C426.144 85.7005 430.731 76.468 430.76 65.0722Z" fill="white"/>
<path id="Vector_46" d="M379.889 196.489C379.93 196.544 379.967 196.603 380 196.665L361.678 209L361 206.668L379.817 194C379.499 194.339 379.169 194.673 378.842 194.991L379.889 196.489Z" fill="#575A89"/>
<path id="Vector_47" d="M803.48 94.7926C791.508 110.178 768.815 117.093 750.292 111.796C750.029 111.724 749.763 111.645 749.507 111.566L749.211 112.279C749.201 112.305 749.188 112.332 749.172 112.357C749 112.78 748.686 113.168 748.255 113.489C747.825 113.81 747.291 114.054 746.698 114.203C746.104 114.351 745.469 114.399 744.843 114.342C744.218 114.285 743.622 114.125 743.103 113.875L738.354 111.704C737.814 111.455 737.352 111.131 736.996 110.753C736.64 110.376 736.398 109.952 736.285 109.507C736.171 109.062 736.188 108.606 736.335 108.166C736.482 107.726 736.755 107.311 737.138 106.947L737.207 106.887L738.004 106.178L738.181 106.017C724.199 95.8847 721.756 77.8053 733.45 62.7763C746.719 45.7248 773.148 39.0692 792.488 47.9112C811.828 56.7532 816.748 77.741 803.48 94.7926Z" fill="#E2DFF5"/>
<path id="Vector_48" opacity="0.2" d="M759.596 56.157C765.374 53.8031 769.067 50.7133 767.844 49.2557C766.621 47.798 760.945 48.5245 755.166 50.8784C749.388 53.2322 745.695 56.3221 746.918 57.7797C748.141 59.2374 753.817 58.5108 759.596 56.157Z" fill="white"/>
<path id="Vector_49" d="M749.211 112.279C749.202 112.305 749.188 112.332 749.172 112.357L737.207 106.887L738.004 106.178L750.292 111.796C750.029 111.724 749.763 111.645 749.507 111.566L749.211 112.279Z" fill="#575A89"/>
</g>
</svg>
