<?xml version="1.0" standalone="no"?>
<!DOCTYPE svg PUBLIC "-//W3C//DTD SVG 1.1//EN" "http://www.w3.org/Graphics/SVG/1.1/DTD/svg11.dtd" >
<svg xmlns="http://www.w3.org/2000/svg" xmlns:xlink="http://www.w3.org/1999/xlink" version="1.1">
<metadata></metadata>
<defs>
<font id="chappablack_oblique" horiz-adv-x="808" >
<font-face units-per-em="2048" ascent="1638" descent="-410" />
<missing-glyph horiz-adv-x="206" />
<glyph horiz-adv-x="681" />
<glyph horiz-adv-x="681" />
<glyph unicode="&#xd;" horiz-adv-x="681" />
<glyph unicode=" "  horiz-adv-x="206" />
<glyph unicode="&#x09;" horiz-adv-x="206" />
<glyph unicode="&#xa0;" horiz-adv-x="206" />
<glyph unicode="!" horiz-adv-x="436" d="M31 0h372l66 371h-373zM201 438h188l309 1235h-372z" />
<glyph unicode="&#x22;" horiz-adv-x="624" d="M311 1333h170l113 338h-270zM600 1333h170l113 338h-271z" />
<glyph unicode="#" horiz-adv-x="1736" d="M111 434h434l-60 -332q-8 -43 17.5 -72.5t68.5 -29.5h267l75 434h66l-76 -434h371l76 434h329q43 0 79 30t44 73l47 266h-434l10 65h435l65 371h-434l59 330q6 43 -18.5 73.5t-67.5 30.5h-266l-76 -434h-65l76 434h-371l-76 -434h-330q-43 0 -78.5 -29.5t-44.5 -72.5 l-47 -269h435l-13 -65h-432zM979 803l12 65h66l-13 -65h-65z" />
<glyph unicode="$" horiz-adv-x="798" d="M84 297q-8 -43 16.5 -72.5t67.5 -29.5h166l-35 -195h197l32 195h168q43 0 78 29.5t41 72.5l84 471q8 41 -16.5 70.5t-67.5 29.5h-297l94 535q2 10 13 10h43q10 0 10 -10l-84 -469h233q41 0 76 29.5t43 72.5l60 340q8 43 -16.5 73t-67.5 30h-166l35 194h-197l-33 -194 h-168q-43 0 -77.5 -30t-43.5 -73l-82 -471q-8 -41 16.5 -70.5t67.5 -29.5h297l-94 -535q-2 -10 -12 -10h-45q-10 0 -8 10l84 469h-234q-41 0 -75.5 -29.5t-43.5 -72.5z" />
<glyph unicode="%" horiz-adv-x="1458" d="M209 999q-4 -25 10 -42t39 -17h301q25 0 44.5 17.5t25.5 41.5l108 615q4 25 -10 42t-39 17h-301q-25 0 -45 -17.5t-25 -41.5zM397 983l115 647q0 6 6 6h27q4 0 4 -6l-115 -647q0 -4 -6 -4h-27q-4 0 -4 4zM453 0h278q39 0 73 26.5t46 65.5l455 1581h-281q-39 0 -73 -26.5 t-46 -65.5zM1020 57q-4 -23 9 -40t38 -17h303q23 0 43.5 17.5t24.5 39.5l108 617q4 25 -10 41t-37 16h-303q-25 0 -44 -16.5t-24 -40.5zM1206 43l115 645q2 6 6 6h27q6 0 4 -6l-113 -645q-2 -6 -8 -6h-25q-6 0 -6 6z" />
<glyph unicode="&#x26;" horiz-adv-x="1099" d="M61 145q-10 -61 25 -103t94 -42h625q61 0 110.5 42t59.5 103l112 635l134 113h-113h-424l-143 -807q-4 -20 -25 -20h-24q-20 0 -17 20l150 852l94 20l10 54h-90l100 575q4 20 25 21h24q20 0 17 -21l-90 -510h426l78 451q12 61 -23 103t-96 42h-625q-59 0 -109.5 -42 t-60.5 -103l-80 -453q-6 -33 6.5 -61.5t40.5 -42.5q-33 -16 -55 -45t-29 -62z" />
<glyph unicode="'" horiz-adv-x="337" d="M315 1366h170l113 340h-272z" />
<glyph unicode="(" horiz-adv-x="616" d="M119 455q-18 -94 3 -177t72.5 -144.5t127 -97.5t170.5 -36h98l31 180h-15q-68 0 -107.5 48t-27.5 118l172 981q12 70 69.5 118t125.5 48h14l33 180h-99q-94 0 -183 -35.5t-160.5 -97t-123 -144.5t-67.5 -177z" />
<glyph unicode=")" horiz-adv-x="616" d="M29 0l30 180h15q70 0 126 48t68 118l174 981q12 70 -27.5 118t-109.5 48h-14l33 180h96q94 0 171 -35.5t127 -97t71.5 -144.5t5.5 -177l-136 -764q-16 -94 -66 -177t-123 -144.5t-162 -97.5t-183 -36h-96z" />
<glyph unicode="*" horiz-adv-x="806" d="M244 1223h217l-150 -183l127 -92l160 197l80 -201l162 84l-78 195h225l29 170h-217l149 182l-127 90l-157 -195l-82 201l-162 -84l78 -194h-224z" />
<glyph unicode="+" horiz-adv-x="811" d="M131 553h246l-43 -248h241l46 248h258l41 244h-256l43 247h-244l-43 -247h-246z" />
<glyph unicode="," horiz-adv-x="387" d="M10 -156h168l213 338h-272z" />
<glyph unicode="-" horiz-adv-x="751" d="M113 471h688l59 340h-686z" />
<glyph unicode="." horiz-adv-x="403" d="M31 0h338l59 338h-338z" />
<glyph unicode="/" horiz-adv-x="643" d="M41 -2h278q41 0 75 26.5t44 65.5l455 1581h-279q-41 0 -74.5 -26.5t-43.5 -65.5z" />
<glyph unicode="0" d="M68 207l223 1259q8 43 30.5 81t55.5 65.5t74 44t84 16.5h329q86 0 135.5 -60.5t34.5 -146.5l-223 -1259q-6 -43 -29.5 -81t-56.5 -65.5t-73 -44t-83 -16.5h-329q-86 0 -136.5 60.5t-35.5 146.5zM387 86q-4 -20 16 -20h25q20 0 25 20l264 1501q4 20 -17 21h-24 q-23 0 -25 -21z" />
<glyph unicode="1" horiz-adv-x="450" d="M57 -2h340l295 1673h-340l-110 -371h47z" />
<glyph unicode="2" d="M31 0h743l119 676h-340l-102 -592q-4 -20 -25 -21h-25q-20 0 -18 21l104 592l13 67h65h340l137 785q10 61 -24.5 103t-93.5 42h-455q-59 0 -109.5 -42t-60.5 -103l-94 -533h340l104 590q2 23 23 23h24q23 0 19 -23l-105 -590l-12 -65h-66h-194q-59 0 -109.5 -42 t-60.5 -102z" />
<glyph unicode="3" d="M33 0l41 233h403l12 66h-405l41 225l18 111h406l170 971h-45q-20 0 -25 -21l-155 -883h-338l135 764q6 41 29.5 79t56.5 65.5t72.5 44t82.5 16.5h134h198q86 0 135.5 -59.5t34.5 -145.5l-223 -1259q-8 -43 -30.5 -81t-55.5 -65.5t-74 -44t-82 -16.5h-133h-403z" />
<glyph unicode="4" d="M90 330q-12 -59 22.5 -102.5t96.5 -43.5h227l-35 -186h373l295 1673h-338l-246 -1395q-4 -20 -24 -20h-25q-20 0 -18 20l246 1395h-338z" />
<glyph unicode="5" d="M57 145q-10 -61 25 -103t94 -42h600l103 586q10 61 -25 103t-94 42h-260l149 854q4 23 27 23h22q23 0 19 -23l-139 -788h337l138 774q6 43 -18.5 72.5t-65.5 29.5h-641l-187 -1050h406l-94 -537q-4 -20 -25 -20h-25q-20 0 -18 20l84 467h-340z" />
<glyph unicode="6" d="M59 145q-10 -61 25 -103t94 -42h455q61 0 110.5 42t59.5 103l115 641q10 59 -25 102.5t-96 43.5h-260l116 653q4 23 25 23h24q20 0 17 -23l-105 -588h340l93 531q12 61 -23 103t-96 42h-455q-59 0 -108.5 -42t-61.5 -103zM389 86l133 758q5 20 25 20h24q20 0 17 -20 l-133 -758q-4 -20 -25 -20h-24q-20 0 -17 20z" />
<glyph unicode="7" d="M197 932h340l118 676h66l-119 -676l-12 -68l-152 -864h193q61 0 110.5 42t59.5 103l270 1528h-743z" />
<glyph unicode="8" d="M57 145q-10 -61 25 -103t94 -42h455q59 0 109.5 42t60.5 103l145 822q6 35 -7 63.5t-40 44.5q33 14 55.5 43t28.5 64l61 346q10 61 -24.5 103t-93.5 42h-455q-59 0 -109.5 -42t-60.5 -103l-61 -346q-6 -35 6 -63.5t41 -43.5q-33 -16 -55.5 -44.5t-28.5 -63.5zM385 86 l166 938q4 20 24 20h25q20 0 16 -20l-165 -938q-2 -20 -23 -20h-25q-23 0 -18 20zM569 1133l80 454q4 20 25 21h24q20 0 19 -21l-82 -454q-2 -20 -23 -21h-24q-20 0 -19 21z" />
<glyph unicode="9" d="M55 145q-10 -61 24 -103t95 -42h455q59 0 109 42t61 103l243 1383q10 61 -24.5 103t-93.5 42h-455q-61 0 -110.5 -42t-59.5 -103l-113 -641q-12 -61 23 -103.5t96 -42.5h260l-116 -655q-2 -20 -25 -20h-25q-20 0 -16 20l104 590h-340zM514 827l133 758q4 23 25 23h24 q20 0 17 -23l-133 -758q-5 -20 -25 -20h-25q-20 0 -16 20z" />
<glyph unicode=":" horiz-adv-x="403" d="M88 326h340l59 340h-337zM160 725h338l59 340h-338z" />
<glyph unicode=";" horiz-adv-x="403" d="M2 -162h170l211 338h-270zM72 236h340l59 339h-340z" />
<glyph unicode="&#x3c;" horiz-adv-x="1071" d="M162 653l821 -655l4 2l64 367l-359 286l459 285l66 367l-3 2z" />
<glyph unicode="=" horiz-adv-x="911" d="M84 297h848l59 338h-846zM156 694h845l60 340h-846z" />
<glyph unicode="&#x3e;" horiz-adv-x="1071" d="M72 -4l2 -2l1052 653l-821 656l-4 -3l-65 -366l360 -287l-461 -285z" />
<glyph unicode="?" d="M160 717h338l166 944q4 20 24 20h25q20 0 18 -20l-168 -944l-10 -66h-68h-159l-31 -172h379l28 172l172 146q49 43 60 102l125 705q10 59 -25 101t-94 42h-455q-59 0 -109.5 -42t-60.5 -101zM223 74h379l60 340h-379z" />
<glyph unicode="@" horiz-adv-x="1171" d="M27 -29q-10 -68 28.5 -117t108.5 -49h821l23 121h-766q-43 0 -67.5 31t-18.5 74l217 1224q6 43 42 73t79 30h663q43 0 67.5 -30t16.5 -73l-194 -1105q-4 -18 -17.5 -31t-32.5 -13h-20l190 1084q8 43 -16.5 72.5t-67.5 29.5h-538q-43 0 -79 -29.5t-44 -72.5l-51 -291 q-6 -43 18.5 -72.5t67.5 -29.5h237l76 424q2 10 12 10h41q10 0 8 -10l-86 -488h-299q-43 0 -78.5 -29.5t-43.5 -72.5l-95 -539q-8 -43 17.5 -72.5t68.5 -29.5h641h76q45 0 80 29.5t43 72.5l215 1221q12 70 -27.5 118t-109.5 48h-774q-70 0 -126.5 -48.5t-68.5 -117.5z M565 61l107 601q2 10 12 10h41q10 0 8 -10l-106 -601q-2 -10 -13 -10h-41q-10 0 -8 10z" />
<glyph unicode="A" d="M35 0h346l98 557h66l-99 -557h332l258 1466q3 19 3 37q0 63 -38 109q-49 60 -135 59h-329q-43 0 -84 -15.5t-74 -44t-55.5 -66.5t-30.5 -79zM489 625l170 960q4 20 25 21h25q20 0 16 -21l-170 -960h-66z" />
<glyph unicode="B" d="M33 0h536q43 0 83 16.5t73 44t56.5 65.5t29.5 81l84 471q4 19 4 37q0 43 -20 82l-23 39l35 38q49 53 59 119l84 473q3 19 3 37q0 63 -38 109q-49 60 -135 59h-536zM389 66l129 737h47q20 0 17 -21l-123 -696q-4 -20 -25 -20h-45zM530 868l132 738h45q20 0 16 -21 l-123 -696q-4 -20 -25 -21h-45z" />
<glyph unicode="C" d="M68 207q-3 -19 -3 -37q0 -62 38 -110q49 -60 135 -60h331q41 0 82 16.5t74 44t55.5 65.5t30.5 81l39 213q1 8 1 16q1 34 -19 58q-24 30 -68 30h-236l-77 -438q-2 -20 -23 -20h-25q-23 0 -18 20l264 1499q4 20 25 21h24q20 0 17 -21l-174 -995h235q43 0 78 29.5t43 72.5 l135 774q4 21 4 40q0 60 -38 106q-50 60 -136 59h-330q-43 0 -82.5 -15.5t-72.5 -44t-56.5 -66.5t-29.5 -79z" />
<glyph unicode="D" d="M33 0h536q43 0 84 16.5t74 44t55.5 65.5t30.5 81l221 1259q4 21 4 40q0 60 -38 106q-50 60 -136 59h-536zM383 66l272 1540h45q20 0 17 -21l-264 -1499q-4 -20 -25 -20h-45z" />
<glyph unicode="E" d="M31 0h340h403l41 233h-403l10 66h405l39 225l21 111h-406l172 971h45q20 0 17 -21l-156 -883h338l135 764q4 21 4 40q0 60 -38 106q-50 60 -136 59h-131h-405z" />
<glyph unicode="F" d="M33 0h340l63 369h301q43 0 79 30.5t44 73.5l41 236h-403l157 897h45q20 0 17 -21l-144 -811h236q43 0 79 30t44 73l102 589q4 21 4 40q0 60 -38 106q-50 60 -136 59h-131h-405z" />
<glyph unicode="G" d="M68 207q-3 -19 -3 -37q0 -62 38 -110q49 -60 135 -60h536l187 1051h-338h-68l98 555h45q20 0 19 -21l-84 -469h340l61 350q3 19 3 37q0 62 -38 109q-49 59 -135 59h-332q-43 0 -82.5 -15.5t-72.5 -44t-56.5 -66.5t-29.5 -79zM383 66l2 20l111 625l49 274h45q20 0 16 -20 l-45 -254l-108 -625q-2 -8 -11 -14q-6 -6 -14 -6h-25h-20z" />
<glyph unicode="H" d="M33 0h338l88 504q4 20 24 20h47l-92 -524h234q43 0 78.5 29.5t44.5 72.5l276 1569h-338l-186 -1057q-4 -20 -25 -20h-47l191 1077h-236q-43 0 -78 -29.5t-43 -72.5z" />
<glyph unicode="I" horiz-adv-x="403" d="M29 0h235q43 0 78 29.5t43 72.5l277 1569h-236q-43 0 -78 -29.5t-43 -72.5z" />
<glyph unicode="J" d="M49 102q-2 -11 -2 -20q0 -30 19 -52q24 -30 67 -30h236h301q43 0 78.5 29.5t44.5 72.5l217 1231l41 236q2 10 2 20q0 30 -19 53q-26 29 -69 29h-236l-278 -1585q-4 -20 -25 -20h-25q-20 0 -16 20l207 1182h-236q-43 0 -77.5 -31t-42.5 -74z" />
<glyph unicode="K" d="M33 0h346l184 1051h45q23 0 19 -21l-183 -1030h332l174 987q2 12 2 22q0 46 -43 70l-8 6l10 5q61 29 74 92l86 489h-332l-94 -534q-4 -20 -24 -21h-46l99 555h-346z" />
<glyph unicode="L" d="M51 102q-2 -11 -2 -20q1 -30 19 -52q24 -30 67 -30h641l10 68l121 680h-338l-120 -680h-66l283 1603h-338z" />
<glyph unicode="M" horiz-adv-x="1177" d="M35 0h235q43 0 80 39t47 94l254 1442q2 12 13 12h45q10 0 8 -12l-279 -1575h307l277 1575q2 12 14 12h45q10 0 6 -12l-253 -1442q-2 -15 -2 -28q0 -37 16 -66q22 -39 65 -39h234l295 1671h-459q-29 0 -57.5 -19.5t-46.5 -54.5l-7 -10l-2 10q-8 35 -29.5 54.5t-49.5 19.5 h-461z" />
<glyph unicode="N" d="M31 0h340l276 1575q2 12 12 12h46q10 0 8 -12l-254 -1442q-3 -16 -3 -31q0 -35 16 -63q24 -39 67 -39h235l273 1540q2 14 2 28q-1 37 -17 65q-22 38 -65 38h-641z" />
<glyph unicode="O" d="M55 133q-3 -16 -3 -31q0 -35 16 -63q24 -39 67 -39h537q43 0 79.5 39t47.5 94l248 1407q3 16 3 31q0 35 -16 62q-24 38 -67 38h-537q-43 0 -80 -38t-47 -93zM387 98l262 1477q2 12 13 12h45q10 0 8 -12l-260 -1477q-4 -14 -15 -14h-45q-10 0 -8 14z" />
<glyph unicode="P" d="M33 0h340l33 186h301q43 0 77.5 30t42.5 73l226 1276q2 10 2 20q1 29 -19 53q-26 30 -69 31h-639zM418 256l235 1337q2 10 13 11h45q10 0 8 -11l-236 -1337q-2 -10 -12 -10h-45q-10 0 -8 10z" />
<glyph unicode="Q" d="M33 0h743l27 150q4 16 -6.5 28t-28.5 12h-61q43 0 78.5 31t43.5 74l224 1272q2 11 2 20q0 31 -19 53q-24 31 -67 31h-537q-43 0 -79 -30.5t-44 -73.5l-223 -1272q-2 -11 -2 -20q0 -31 18 -54q25 -31 68 -31h-61q-16 0 -31 -12t-19 -28zM422 279l229 1302q4 23 25 23h24 q20 0 17 -23l-230 -1302q-4 -20 -24 -21h-25q-20 0 -16 21z" />
<glyph unicode="R" d="M35 0h338l119 678h45q20 0 18 -21l-117 -657h340l101 573q2 10 2 20q1 31 -19 54q-26 31 -69 31q43 0 78.5 29.5t43.5 72.5l138 785q2 11 2 20q-1 29 -19 53q-24 30 -67 31h-641zM506 754l147 839q2 10 13 11h45q10 0 8 -11l-148 -839q-2 -10 -12 -11h-45q-10 0 -8 11z " />
<glyph unicode="S" d="M55 133q-3 -16 -3 -31q0 -35 16 -63q24 -39 67 -39h537q43 0 79.5 39t47.5 94l131 744h-404l121 696q2 12 15 12h45q10 0 6 -12l-107 -610h236q43 0 79.5 37.5t47.5 93.5l78 444q3 16 3 31q0 35 -16 63q-24 39 -67 39h-537q-43 0 -80 -39t-47 -94l-108 -612 q-2 -15 -2 -28q0 -37 16 -66q22 -39 65 -39h301l-120 -695q-4 -14 -15 -14h-45q-10 0 -8 14l109 611h-338z" />
<glyph unicode="T" horiz-adv-x="813" d="M53 102q-2 -11 -2 -20q1 -30 19 -52q24 -30 67 -30h539q43 0 77.5 29.5t43.5 72.5l168 957q2 10 2 20q1 29 -17 55q-24 34 -67 35h-238l-192 -1091q-2 -12 -15 -12h-41q-12 0 -10 12l205 1157h303q41 0 77 29.5t42 72.5l43 236h-406l17 98h-338z" />
<glyph unicode="U" d="M55 133q-3 -16 -3 -31q0 -35 16 -63q24 -39 67 -39h639l270 1538q2 13 2 26q0 39 -24 68q-32 39 -88 39h-203l-278 -1573q-2 -14 -13 -14h-45q-10 0 -8 14l254 1442q3 16 3 31q0 35 -16 62q-24 38 -67 38h-235z" />
<glyph unicode="V" d="M113 453q-6 -35 -6 -68q0 -49 14 -92l96 -293h373l201 293q49 72 63 160l215 1218h-233q-43 0 -81 -38t-46 -93l-254 -1442q-2 -14 -15 -14h-45q-10 0 -6 14l254 1442q2 14 2 28q-1 37 -17 65q-22 38 -65 38h-235z" />
<glyph unicode="W" horiz-adv-x="1177" d="M33 0h459q29 0 57.5 19.5t48.5 54.5l4 10l4 -10q6 -35 27.5 -54.5t50.5 -19.5h461l295 1671h-236q-43 0 -80 -38t-45 -93l-256 -1442q-2 -14 -12 -14h-45q-10 0 -8 14l278 1573h-307l-276 -1573q-2 -14 -13 -14h-45q-10 0 -8 14l254 1442q3 16 3 31q0 35 -16 62 q-24 38 -67 38h-233z" />
<glyph unicode="X" d="M33 0h338l159 899q2 14 13 14h45q10 0 8 -14l-160 -899h340l146 831q2 14 2 28q0 21 -6 41q-10 32 -31 48l-8 6l10 9q29 16 49 47.5t29 68.5l102 592h-233q-43 0 -81 -38t-46 -93l-95 -528q-2 -14 -12 -15h-45q-10 0 -8 15l94 528q2 14 2 28q-1 37 -17 65q-22 38 -65 38 h-235l-105 -592q-3 -16 -3 -31q0 -20 6 -38q10 -32 32 -49l8 -7l-10 -4q-29 -18 -49.5 -50t-28.5 -69z" />
<glyph unicode="Y" d="M51 102q-1 -8 -1 -16q0 -33 20 -56q24 -30 67 -30h537q43 0 77.5 29.5t43.5 72.5l276 1567h-237q-43 0 -79 -30.5t-42 -73.5l-199 -1125q-2 -10 -12 -10h-41q-10 0 -8 10l215 1229h-238q-43 0 -78 -30.5t-43 -73.5l-192 -1094q-2 -11 -2 -20q0 -30 19 -53q24 -29 67 -29 h301l-53 -293q0 -10 -11 -10h-43q-10 0 -8 10l41 227h-238q-43 0 -78.5 -30.5t-41.5 -73.5z" />
<glyph unicode="Z" d="M33 0l153 879h406l123 696q2 12 -8 12h-45q-10 0 -13 -12l-108 -612h-236q-43 0 -67 39q-16 27 -16 63q0 15 3 31l103 575h741l-154 -878h-405l-121 -695q-4 -14 6 -14h45q12 0 15 14l106 611h236q43 0 67 -39q16 -27 16 -63q0 -15 -3 -32l-101 -575h-743z" />
<glyph unicode="[" horiz-adv-x="616" d="M35 0h371h180l32 180h-180l232 1313h180l31 180h-181h-370z" />
<glyph unicode="\" horiz-adv-x="622" d="M223 92l103 1581h278q41 0 65.5 -26.5t20.5 -65.5l-102 -1581h-279q-41 0 -65.5 26.5t-20.5 65.5z" />
<glyph unicode="]" horiz-adv-x="616" d="M31 0l30 180h181l231 1313h-180l33 180h180h371l-295 -1673h-371h-180z" />
<glyph unicode="^" horiz-adv-x="1374" d="M162 733l2 -2h366l359 408l213 -408h366l2 2l-487 938z" />
<glyph unicode="_" horiz-adv-x="911" d="M33 0h846l59 338h-846z" />
<glyph unicode="`" horiz-adv-x="387" d="M272 1706h271l-8 -340h-170z" />
<glyph unicode="a" d="M47 102q-1 -8 -1 -16q0 -32 20 -56q24 -30 65 -30h643l211 1198q1 8 1 16q0 32 -20 56q-24 30 -67 30h-539q-41 0 -76.5 -29.5t-41.5 -72.5l-52 -291q-2 -11 -2 -20q0 -31 18 -53q24 -30 68 -29h238l74 422q4 12 16 12h37q12 0 10 -12l-86 -484h-301q-41 0 -76.5 -29.5 t-42.5 -72.5zM383 74l104 596q4 12 17 12h37q12 0 10 -12l-105 -596q-4 -12 -16 -13h-37q-12 0 -10 13z" />
<glyph unicode="b" d="M33 0h641q43 0 77.5 29.5t43.5 72.5l192 1096q2 11 2 20q-1 30 -19 52q-24 30 -67 30h-299l47 271q1 8 1 16q0 33 -20 57q-24 30 -65 29h-239zM387 74l203 1149q2 12 14 12h37q12 0 10 -12l-202 -1149q-2 -12 -15 -13h-37q-12 0 -10 13z" />
<glyph unicode="c" d="M31 0h641q43 0 77.5 29.5t43.5 72.5l57 322q1 8 1 16q1 32 -19 56q-24 30 -66 30h-240l-80 -452q-2 -12 -14 -13h-37q-12 0 -10 13l203 1149q2 12 14 12h37q12 0 10 -12l-112 -635h239q43 0 78 29.5t43 72.5l88 508q2 11 2 20q-1 30 -19 52q-24 30 -67 30h-539 q-43 0 -77.5 -29.5t-42.5 -72.5z" />
<glyph unicode="d" d="M49 102q-2 -11 -2 -20q1 -30 19 -52q24 -30 67 -30h641l295 1673h-238q-43 0 -77.5 -29.5t-42.5 -72.5l-47 -271h-302q-43 0 -77.5 -29.5t-40.5 -72.5zM385 74l203 1149q2 12 14 12h37q12 0 10 -12l-203 -1149q-2 -12 -14 -13h-37q-12 0 -10 13z" />
<glyph unicode="e" d="M33 -2h641q43 0 77.5 29.5t43.5 72.5l45 258q2 11 2 20q0 30 -18 53q-24 30 -68 30h-238l-69 -389q-3 -13 -15 -13h-37q-12 0 -10 13l80 452h299q43 0 79 30t42 73l100 569q2 11 2 20q-1 30 -19 52q-24 30 -67 30h-538q-43 0 -78 -29.5t-43 -72.5zM479 598l111 623 q2 12 14 12h37q12 0 10 -12l-110 -623q-2 -12 -15 -12h-37q-12 0 -10 12z" />
<glyph unicode="f" d="M-33 -375h236q43 0 78.5 30t42.5 73l47 268h303q43 0 77.5 29.5t43.5 72.5l41 236h-404l156 887q2 12 14 12h43q10 0 8 -10l-147 -822h235q43 0 79 30t44 73l123 690q2 11 2 20q0 31 -19 54q-24 30 -67 30h-641z" />
<glyph unicode="g" d="M-16 -272q-2 -10 -2 -20q0 -30 20 -53q25 -30 68 -30h536q43 0 78 30t43 73l277 1566h-642q-43 0 -77.5 -29.5t-42.5 -72.5l-193 -1096q-2 -11 -2 -20q0 -30 19 -52q24 -30 67 -30h299l-51 -293q-2 -10 -12 -10h-41q-10 0 -9 10l41 227h-239q-43 0 -78 -29.5t-43 -72.5z M385 68l201 1149q4 12 16 12h37q12 0 10 -12l-203 -1149q-2 -12 -14 -13h-37q-12 0 -10 13z" />
<glyph unicode="h" d="M31 0h340l217 1223q2 12 14 12h37q12 0 10 -12l-215 -1223h340l211 1198q2 11 2 20q-1 30 -19 52q-24 30 -67 30h-301l49 271q1 8 1 16q0 33 -20 57q-24 30 -67 29h-237z" />
<glyph unicode="i" horiz-adv-x="436" d="M49 102q-2 -11 -2 -20q1 -30 19 -52q24 -30 67 -30h268l230 1300h-371zM272 1366h371l53 307h-370z" />
<glyph unicode="j" d="M49 98q-1 -8 -1 -16q0 -33 20 -56q24 -30 67 -30h641l297 1675h-237q-43 0 -78 -29.5t-43 -72.5l-264 -1495q-2 -12 -15 -13h-41q-12 0 -10 13l152 856h-238q-43 0 -78 -30t-43 -73z" />
<glyph unicode="k" d="M51 102q-2 -11 -2 -20q1 -30 19 -52q24 -30 67 -30h238l149 852q2 12 15 12h41q12 0 10 -12l-133 -750q-1 -8 -1 -16q0 -32 20 -56q24 -30 67 -30h235l142 803q2 12 2 22q0 46 -43 68l-9 6l11 4q61 29 73 92l54 305h-338l-64 -358q-2 -12 -14 -12h-41q-12 0 -10 12 l63 358h-340z" />
<glyph unicode="l" horiz-adv-x="436" d="M51 102q-2 -11 -2 -20q1 -30 19 -52q24 -30 67 -30h268l295 1673h-370z" />
<glyph unicode="m" horiz-adv-x="1177" d="M31 0h237q43 0 78 29.5t43 72.5l197 1121q2 12 14 12h41q12 0 10 -12l-215 -1223h305l217 1223q2 12 15 12h41q12 0 10 -12l-199 -1121q-1 -8 -1 -16q0 -32 20 -56q24 -30 65 -30h236l211 1198q2 11 2 20q0 30 -18 52q-24 30 -68 30h-357q-63 0 -102 -57l-6 -8l-2 8 q-18 57 -82 57h-361q-43 0 -77.5 -29.5t-40.5 -72.5z" />
<glyph unicode="n" d="M33 0h340l215 1223q2 12 14 12h41q12 0 10 -12l-198 -1121q-1 -8 -1 -16q0 -32 20 -56q24 -30 67 -30h235l211 1198q2 11 2 20q-1 30 -19 52q-24 30 -67 30h-641z" />
<glyph unicode="o" d="M49 102q-1 -8 -1 -16q0 -32 20 -56q24 -30 67 -30h539q43 0 77.5 29.5t41.5 72.5l194 1096q1 9 1 17q0 31 -18 55q-24 30 -67 30h-538q-43 0 -79 -29.5t-42 -72.5zM385 78l201 1145q2 12 14 12h43q12 0 8 -12l-200 -1145q-2 -12 -15 -12h-41q-12 0 -10 12z" />
<glyph unicode="p" d="M-37 -375h238q43 0 77.5 30t43.5 73l47 268h303q43 0 77.5 29.5t43.5 72.5l194 1100q1 8 1 16q0 33 -20 58q-24 31 -67 31h-643zM381 74l203 1149q2 12 14 12h43q12 0 10 -12l-202 -1149q-2 -12 -15 -13h-43q-12 0 -10 13z" />
<glyph unicode="q" d="M47 98q-1 -8 -1 -16q0 -33 20 -56q24 -30 67 -30h303l-47 -268q-2 -11 -2 -20q0 -30 19 -53q24 -30 67 -30h238l297 1678h-646q-43 0 -77.5 -31t-42.5 -74zM383 74l203 1149q2 12 14 12h43q12 0 10 -12l-202 -1149q-2 -12 -15 -13h-43q-12 0 -10 13z" />
<glyph unicode="r" d="M31 0h340l215 1223q2 12 14 12h41q12 0 10 -12l-116 -666h235q43 0 78 29.5t43 72.5l94 539q2 11 2 20q-1 30 -19 52q-24 30 -67 30h-539q-43 0 -77.5 -29.5t-42.5 -72.5z" />
<glyph unicode="s" d="M51 102q-2 -11 -2 -20q1 -30 19 -52q24 -30 67 -30h539q43 0 77.5 29.5t43.5 72.5l84 480q2 11 2 20q-1 30 -19 52q-24 30 -67 30h-303l96 539q2 12 14 12h41q12 0 10 -12l-84 -473h238q43 0 78 29.5t41 72.5l61 346q2 11 2 20q-1 30 -19 52q-24 30 -67 30h-538 q-43 0 -78 -29.5t-43 -72.5l-84 -479q-2 -10 -2 -20q0 -29 18 -51q24 -30 68 -30h303l-96 -540q-2 -12 -15 -12h-41q-12 0 -10 12l84 473h-238q-41 0 -76.5 -29.5t-41.5 -70.5z" />
<glyph unicode="t" d="M51 102q-2 -11 -2 -20q1 -30 19 -52q24 -30 67 -30h539q43 0 77.5 29.5t43.5 72.5l120 684q1 8 1 16q0 32 -18 60q-24 35 -67 35h-235l-145 -819q-2 -12 -15 -12h-41q-12 0 -10 12l156 885h303q43 0 77.5 29.5t43.5 72.5l41 235h-406l66 373h-338z" />
<glyph unicode="u" d="M49 102q-2 -11 -2 -20q1 -30 19 -52q24 -30 67 -30h539q43 0 77.5 29.5t43.5 72.5l192 1096q2 11 2 20q-1 30 -19 52q-24 30 -67 30h-235l-217 -1222q-2 -12 -15 -12h-41q-12 0 -10 12l199 1120q1 8 1 16q1 32 -19 56q-24 30 -66 30h-238z" />
<glyph unicode="v" d="M92 350q-3 -18 -3 -35q0 -46 20 -88l108 -227h371l190 227q47 57 58 123l168 950h-236q-43 0 -78 -29.5t-43 -72.5l-198 -1120q-2 -12 -15 -12h-41q-12 0 -10 12l199 1120q1 8 1 16q1 32 -19 56q-24 30 -66 30h-238z" />
<glyph unicode="w" horiz-adv-x="1177" d="M49 102q-2 -11 -2 -20q1 -30 19 -52q24 -30 67 -30h356q63 0 103 57l6 9l2 -9q18 -57 82 -57h360q41 0 77 29.5t42 72.5l211 1198h-235q-43 0 -78 -29.5t-43 -72.5l-197 -1120q-2 -12 -14 -12h-41q-12 0 -10 12l215 1222h-307l-216 -1222q-2 -12 -14 -12h-41 q-12 0 -10 12l197 1120q2 11 2 20q0 30 -18 52q-24 30 -68 30h-234z" />
<glyph unicode="x" d="M33 0h338l123 698q2 12 14 13h41q12 0 10 -13l-123 -698h340l113 647q2 12 2 22q0 44 -41 68l-10 6l12 7q61 27 72 90l82 460h-238q-43 0 -78 -29.5t-43 -72.5l-72 -410q-2 -12 -14 -12h-41q-12 0 -10 12l72 410q2 11 2 20q0 30 -18 52q-24 30 -68 30h-236l-82 -460 q-2 -12 -2 -22q0 -46 43 -70l8 -5l-10 -4q-61 -29 -74 -92z" />
<glyph unicode="y" d="M-16 -272q-2 -11 -2 -20q0 -30 18 -53q25 -30 68 -30h542q43 0 78 30t43 73l277 1572h-240q-43 0 -78 -29.5t-43 -72.5l-198 -1128q-2 -12 -15 -13h-39q-12 0 -8 13l217 1230h-239q-43 0 -79 -29.5t-42 -72.5l-195 -1102q-2 -11 -2 -20q0 -30 19 -52q24 -30 67 -30h301 l-51 -291q-2 -12 -14 -12h-37q-12 0 -10 12l38 225h-239q-41 0 -77 -29.5t-42 -72.5z" />
<glyph unicode="z" d="M33 0l121 684h405l94 539q2 12 -10 12h-41q-12 0 -14 -12l-84 -473h-238q-42 0 -66 30q-20 24 -19 56q0 8 1 16l80 448h744l-121 -682h-404l-96 -540q-2 -12 10 -12h41q12 0 15 12l84 473h237q42 1 66 -29q19 -24 19 -55q0 -8 -1 -16l-80 -451h-743z" />
<glyph unicode="{" horiz-adv-x="731" d="M170 786q49 0 75.5 -13t39 -32.5t13.5 -43t-3 -46.5q-6 -37 -17.5 -73.5t-23.5 -73.5t-23.5 -75t-17.5 -75q-12 -70 -3 -134t35.5 -113.5t69.5 -79t101 -29.5h280l37 205h-33q-78 0 -104.5 41t-11.5 118q6 33 15 66t19 66q12 35 21.5 68.5t17.5 70.5q16 88 -11.5 136 t-86.5 65l2 2v2q63 14 107.5 62t58.5 136q8 37 10 72t2 68q0 35 2 66.5t9 64.5q14 78 55 118.5t117 40.5h32l37 205h-280q-57 0 -110.5 -29.5t-97.5 -79t-76 -113t-44 -132.5q-6 -39 -8 -76t-4 -76q0 -37 -2 -73.5t-9 -73.5q-4 -20 -13 -45t-28.5 -44.5t-51 -32.5t-79.5 -13 l-8 -47z" />
<glyph unicode="|" horiz-adv-x="782" d="M199 -375h213l360 2048h-213z" />
<glyph unicode="}" horiz-adv-x="731" d="M33 0l35 205h34q76 0 117 41t55 119q6 33 8.5 64.5t2.5 66.5q0 33 2 67.5t10 71.5q14 88 57 136t109 63v2v2q-59 16 -86 64t-10 136q8 37 17 71t22 69q10 33 19 65.5t15 65.5q14 78 -12 118.5t-104 40.5h-33l37 205h280q57 0 100.5 -29.5t70 -78.5t35.5 -114t-3 -134 q-6 -37 -17.5 -75t-23.5 -75t-23.5 -73.5t-17.5 -73.5q-4 -23 -3 -46.5t12.5 -43t39 -32.5t76.5 -13l-10 -49l-8 -48q-49 0 -80 -13t-50.5 -32.5t-28.5 -44t-13 -45.5q-6 -37 -8.5 -73.5t-2.5 -73.5q-2 -39 -4 -76t-8 -76q-12 -68 -44 -132t-76 -113.5t-97 -79t-111 -29.5 h-280z" />
<glyph unicode="~" horiz-adv-x="1490" />
<glyph unicode="&#xa1;" horiz-adv-x="436" d="M33 0h370l125 1235h-188zM262 1300h371l65 373h-370z" />
<glyph unicode="&#xa2;" />
<glyph unicode="&#xa8;" horiz-adv-x="1118" d="M596 1477q8 43 44 73.5t79 30.5t68.5 -30.5t17.5 -73.5t-44 -74t-79 -31t-68.5 31t-17.5 74zM883 1477q6 43 42 73.5t81 30.5q43 0 67.5 -30.5t18.5 -73.5q-8 -43 -44 -74t-79 -31q-45 0 -70 31t-16 74z" />
<glyph unicode="&#xab;" horiz-adv-x="1173" />
<glyph unicode="&#xac;" horiz-adv-x="1490" />
<glyph unicode="&#xad;" horiz-adv-x="751" d="M113 471h688l59 340h-686z" />
<glyph unicode="&#xae;" horiz-adv-x="454" d="M303 1536q-14 -82 33 -138.5t127 -56.5q41 0 79 15.5t69.5 41t53 61.5t27.5 77q14 82 -32 138.5t-128 56.5q-41 0 -78.5 -15.5t-69.5 -42t-53.5 -61.5t-27.5 -76zM330 1536q12 70 69.5 119t128.5 49q70 0 110 -49t28 -119t-69.5 -119t-127.5 -49q-72 0 -112 49t-27 119z M422 1440h27l16 88h24q33 0 35 -39q2 -43 6 -49h27q-2 8 -6 55q-3 35 -23 43q18 6 31.5 19.5t18.5 33.5q4 25 -11 39q-16 16 -57 17q-29 0 -51 -5zM469 1548l12 76q10 2 27 2q49 0 41 -37q-6 -41 -53 -41h-27z" />
<glyph unicode="&#xb0;" horiz-adv-x="403" d="M229 1122q-4 -14 8.5 -24.5t32.5 -10.5h244q20 0 35.5 10.5t17.5 24.5l66 377q4 14 -8.5 24.5t-30.5 10.5h-246q-18 0 -34.5 -10.5t-18.5 -24.5zM381 1112l70 395q2 4 6 4h20q4 0 4 -4l-69 -395q0 -2 -6 -2h-21q-4 0 -4 2z" />
<glyph unicode="&#xb4;" horiz-adv-x="387" d="M344 1372h170l213 340h-272z" />
<glyph unicode="&#xbc;" horiz-adv-x="1515" d="M150 537h229l201 1136h-230l-76 -252h31zM348 0h279q41 0 74.5 26.5t43.5 65.5l455 1581h-278q-39 0 -74 -26.5t-45 -65.5zM1010 225q-8 -41 15.5 -69.5t64.5 -28.5h153l-22 -127h254l198 1135h-229l-166 -947q-4 -12 -16 -12h-19q-12 0 -10 12l166 947h-230z" />
<glyph unicode="&#xbd;" horiz-adv-x="1501" d="M147 537h232l199 1136h-230l-76 -252h33zM348 0h279q39 0 72.5 26.5t45.5 65.5l455 1581h-280q-39 0 -73 -26.5t-46 -65.5zM954 0h504l82 459h-231l-70 -402q-4 -14 -16 -14h-19q-12 0 -10 14l70 402l8 45h45h229l94 534q8 41 -15 69t-64 28h-310q-41 0 -74.5 -28 t-39.5 -69l-64 -362h230l71 401q2 14 17 15h16q14 0 10 -15l-69 -401l-9 -45h-45h-131q-41 0 -74.5 -29t-41.5 -70z" />
<glyph unicode="&#xbe;" horiz-adv-x="1695" d="M129 537l27 159h274l8 45h-274l26 154l15 74h274l117 659h-31q-14 0 -16 -14l-107 -600h-229l90 518q10 59 58.5 100t107.5 41h90h133q59 0 93 -41t24 -100l-152 -854q-10 -59 -58 -100t-105 -41h-91h-274zM539 0l454 1581q10 39 44 65.5t75 26.5h279l-455 -1581 q-10 -39 -45 -65.5t-74 -26.5h-278zM1198 225l162 910h229l-166 -947q-4 -14 11 -14h16q14 0 16 14l168 947h230l-201 -1135h-252l23 127h-154q-41 0 -64.5 28.5t-17.5 69.5z" />
<glyph unicode="&#xbf;" d="M23 -55q-10 -59 24.5 -101.5t93.5 -42.5h455q59 0 109.5 42.5t60.5 101.5l156 886h-338l-166 -944q-4 -20 -25 -20h-24q-20 0 -19 20l168 944l10 66h68h160l30 172h-378l-31 -172l-170 -145q-49 -43 -60 -103zM420 1135h379l59 340h-379z" />
<glyph unicode="&#xc0;" d="M31 0h346l98 557h66l-99 -557h332l258 1466q14 86 -35 145.5t-135 59.5h-329q-43 0 -84 -15.5t-74 -44t-55.5 -66.5t-30.5 -79zM485 625l170 960q4 20 25 21h25q20 0 16 -21l-170 -960h-66zM600 2077h271l-68 -340h-170z" />
<glyph unicode="&#xc1;" d="M33 0h346l98 557h66l-99 -557h332l258 1466q14 86 -35 145.5t-135 59.5h-329q-43 0 -84 -15.5t-74 -44t-55.5 -66.5t-30.5 -79zM487 625l170 960q4 20 25 21h25q20 0 16 -21l-170 -960h-66zM609 1743h170l273 340h-272z" />
<glyph unicode="&#xc2;" d="M31 0h344l98 557h66l-99 -557h334l258 1466q14 86 -35 145.5t-135 59.5h-330q-43 0 -83.5 -15.5t-73.5 -44t-55.5 -66.5t-30.5 -79zM479 1739h133l129 147l76 -147h133l-176 338zM485 625l170 960q4 20 25 21h25q20 0 16 -21l-170 -960h-66z" />
<glyph unicode="&#xc3;" d="M33 0h346l98 557h66l-99 -557h332l258 1466q16 86 -34 145.5t-136 59.5h-329q-43 0 -83 -15.5t-74 -44t-56.5 -66.5t-30.5 -79zM352 1839q-8 -43 16.5 -72.5t67.5 -29.5h641l35 205q8 41 -16.5 71.5t-67.5 30.5h-641zM487 625l170 960q4 20 25 21h25q20 0 16 -21 l-168 -960h-68z" />
<glyph unicode="&#xc4;" d="M33 0h346l98 557h66l-99 -557h332l258 1466q14 86 -35 145.5t-135 59.5h-329q-43 0 -84 -15.5t-74 -44t-55.5 -66.5t-30.5 -79zM428 1848q8 43 44 73.5t79 30.5t68.5 -30.5t17.5 -73.5t-44 -74t-79 -31t-68.5 31t-17.5 74zM487 625l170 960q4 20 25 21h25q20 0 16 -21 l-170 -960h-66zM715 1848q6 43 42 73.5t81 30.5q43 0 67.5 -30.5t18.5 -73.5q-8 -43 -44 -74t-79 -31q-45 0 -70 31t-16 74z" />
<glyph unicode="&#xc8;" d="M33 0h340h403l41 233h-403l10 66h405l39 225l21 111h-406l172 971h45q20 0 17 -21l-156 -883h338l135 764q16 86 -34 145.5t-136 59.5h-131h-405zM604 2077h271l-68 -340h-170z" />
<glyph unicode="&#xc9;" d="M33 0h338h405l41 233h-405l12 66h403l41 225l19 111h-404l170 971h45q23 0 19 -21l-156 -883h338l135 764q14 86 -35 145.5t-135 59.5h-133h-403zM600 1739h170l213 338h-272z" />
<glyph unicode="&#xca;" d="M33 0h338h405l41 233h-405l12 66h405l39 225l21 111h-406l172 971h45q20 0 17 -21l-156 -883h338l135 764q14 86 -35 145.5t-135 59.5h-133h-403zM475 1739h133l129 147l76 -147h133l-176 338z" />
<glyph unicode="&#xcb;" d="M33 0h338h405l41 233h-405l12 66h405l39 225l21 111h-406l172 971h45q20 0 17 -21l-156 -883h338l135 764q14 86 -35 145.5t-135 59.5h-133h-403zM481 1843q-8 -43 17.5 -73.5t68.5 -30.5t79 30.5t44 73.5t-17.5 74t-68.5 31t-79 -31t-44 -74zM768 1843 q-8 -43 17.5 -73.5t68.5 -30.5t79 30.5t44 73.5t-17.5 74t-68.5 31t-79 -31t-44 -74z" />
<glyph unicode="&#xcc;" horiz-adv-x="403" d="M31 0h235q43 0 78 29.5t43 72.5l277 1569h-236q-43 0 -78 -29.5t-43 -72.5zM426 2077h271l-68 -340h-170z" />
<glyph unicode="&#xcd;" horiz-adv-x="403" d="M33 0h235q43 0 78 29.5t43 72.5l277 1569h-236q-43 0 -78 -29.5t-43 -72.5zM398 1743h170l273 340h-272z" />
<glyph unicode="&#xce;" horiz-adv-x="403" d="M31 0h235q43 0 78 29.5t43 72.5l277 1569h-236q-43 0 -78 -29.5t-43 -72.5zM333 1739h133l153 148l52 -148h131h2l-116 338z" />
<glyph unicode="&#xcf;" horiz-adv-x="403" d="M29 0h235q43 0 78 29.5t43 72.5l277 1569h-236q-43 0 -78 -29.5t-43 -72.5zM219 1848q8 43 44 73.5t79 30.5t68.5 -30.5t17.5 -73.5t-44 -74t-79 -31t-68.5 31t-17.5 74zM506 1848q6 43 42 73.5t81 30.5q43 0 67.5 -30.5t18.5 -73.5q-8 -43 -44 -74t-79 -31q-45 0 -70 31 t-16 74z" />
<glyph unicode="&#xd1;" d="M33 0h340l276 1575q2 12 13 12h45q12 0 8 -12l-254 -1442q-8 -55 14.5 -94t65.5 -39h235l273 1540q8 55 -14.5 93t-65.5 38h-641zM358 1841q-8 -41 16.5 -71.5t67.5 -30.5h641l37 205q6 43 -18.5 72.5t-67.5 29.5h-641z" />
<glyph unicode="&#xd2;" d="M57 133q-10 -55 13.5 -93t66.5 -38h537q43 0 80 38t45 93l250 1407q8 55 -14.5 94t-65.5 39h-537q-43 0 -81 -39t-46 -94zM389 98l260 1477q2 14 13 14h45q10 0 8 -14l-260 -1477q-2 -12 -13 -12h-45q-10 0 -8 12zM524 2077l94 -338h168l11 338h-273z" />
<glyph unicode="&#xd3;" d="M57 133q-10 -55 13.5 -94t66.5 -39h537q43 0 80 39t47 94l248 1407q8 55 -14.5 93t-65.5 38h-537q-43 0 -80 -38t-47 -93zM389 98l260 1477q2 12 13 12h45q10 0 8 -12l-260 -1477q-2 -14 -13 -14h-45q-10 0 -8 14zM635 1737h170l211 340h-271z" />
<glyph unicode="&#xd4;" d="M55 133q-10 -55 13.5 -93t66.5 -38h537q43 0 79.5 38t47.5 93l248 1407q8 55 -14.5 94t-65.5 39h-537q-43 0 -80 -39t-47 -94zM387 98l260 1477q2 14 12 14h46q10 0 8 -14l-260 -1477q-2 -12 -13 -12h-45q-10 0 -8 12zM473 1739h2h131l129 147l78 -147h131l-174 338z" />
<glyph unicode="&#xd5;" d="M55 133q-10 -55 13.5 -94t66.5 -39h537q43 0 79.5 39t45.5 94l250 1407q8 55 -14.5 93t-65.5 38h-537q-43 0 -81 -38t-46 -93zM356 1839q-8 -41 16.5 -71.5t67.5 -30.5h641l35 205q8 43 -16.5 72.5t-67.5 29.5h-641zM387 98l260 1477q2 12 12 12h46q10 0 8 -12 l-260 -1477q-2 -14 -13 -14h-45q-10 0 -8 14z" />
<glyph unicode="&#xd6;" d="M55 133q-10 -55 13.5 -94t66.5 -39h537q43 0 79.5 39t45.5 94l250 1407q8 55 -14.5 93t-65.5 38h-537q-43 0 -81 -38t-46 -93zM387 98l260 1477q2 12 12 12h46q10 0 8 -12l-260 -1477q-2 -14 -13 -14h-45q-10 0 -8 14zM479 1841q-6 -43 18.5 -73.5t67.5 -30.5 q45 0 81 30.5t42 73.5q8 45 -16.5 75t-69.5 30q-43 0 -79 -30t-44 -75zM766 1841q-8 -43 17.5 -73.5t68.5 -30.5t79 30.5t44 73.5q8 45 -17.5 75t-68.5 30t-79 -30t-44 -75z" />
<glyph unicode="&#xd7;" horiz-adv-x="1490" />
<glyph unicode="&#xd9;" d="M57 133q-10 -55 13.5 -93t66.5 -38h641l271 1536q10 57 -23 96t-88 39h-205l-276 -1575q-2 -12 -15 -12h-45q-10 0 -6 12l254 1442q8 55 -14.5 94t-65.5 39h-235zM494 2077l92 -338h170l8 338h-270z" />
<glyph unicode="&#xda;" d="M57 133q-10 -55 13.5 -94t66.5 -39h639l273 1538q10 55 -23 94t-88 39h-205l-276 -1573q-4 -14 -15 -14h-45q-10 0 -8 14l254 1442q10 55 -12.5 93t-65.5 38h-235zM602 1737h170l213 340h-272z" />
<glyph unicode="&#xdb;" d="M57 133q-10 -55 13.5 -94t66.5 -39h639l273 1538q8 55 -24 94t-87 39h-205l-278 -1573q-2 -14 -13 -14h-45q-10 0 -8 14l254 1442q10 55 -13.5 93t-66.5 38h-235zM475 1739l2 -2h131l129 147l78 -147h131l2 2l-176 338z" />
<glyph unicode="&#xdc;" d="M55 133q-10 -55 13.5 -94t66.5 -39h639l273 1538q10 55 -23 94t-88 39h-205l-278 -1573q-2 -14 -13 -14h-45q-10 0 -8 14l254 1442q10 55 -13.5 93t-66.5 38h-235zM481 1841q-8 -43 16.5 -73.5t69.5 -30.5q43 0 79 30.5t44 73.5q6 45 -18.5 75t-67.5 30q-45 0 -81 -30 t-42 -75zM766 1841q-6 -43 18.5 -73.5t67.5 -30.5q45 0 81 30.5t42 73.5q8 45 -16.5 75t-69.5 30q-43 0 -79 -30t-44 -75z" />
<glyph unicode="&#xdd;" d="M51 104q-8 -43 17.5 -73.5t68.5 -30.5h537q43 0 77.5 30.5t43.5 73.5l276 1565h-237q-43 0 -79 -29.5t-42 -72.5l-199 -1127q-2 -10 -12 -10h-41q-10 0 -10 10l217 1229h-238q-43 0 -78 -29.5t-43 -72.5l-192 -1096q-8 -43 16.5 -72.5t67.5 -29.5h301l-53 -291 q-2 -12 -13 -12h-41q-10 0 -8 12l41 225h-238q-43 0 -78.5 -29.5t-43.5 -72.5zM641 1739h170l211 340h-270z" />
<glyph unicode="&#xe0;" d="M49 102q-8 -43 17.5 -72.5t66.5 -29.5h641l213 1198q6 43 -18.5 72.5t-67.5 29.5h-539q-41 0 -76.5 -29.5t-41.5 -72.5l-51 -291q-8 -43 16 -72.5t67 -29.5h238l74 422q2 12 14 12h39q12 0 10 -12l-86 -484h-301q-41 0 -76.5 -29.5t-42.5 -72.5zM385 74l104 596 q2 12 15 12h39q12 0 10 -12l-107 -596q-2 -12 -14 -13h-37q-12 0 -10 13zM512 1706l92 -340h170l10 340h-272z" />
<glyph unicode="&#xe1;" d="M49 102q-8 -43 16.5 -72.5t67.5 -29.5h641l211 1198q8 43 -16.5 72.5t-67.5 29.5h-539q-43 0 -77.5 -29.5t-42.5 -72.5l-52 -291q-6 -43 18.5 -72.5t67.5 -29.5h238l74 422q2 12 14 12h39q12 0 8 -12l-84 -484h-301q-43 0 -77.5 -29.5t-43.5 -72.5zM385 74l104 596 q2 12 15 12h39q12 0 8 -12l-105 -596q-2 -12 -14 -13h-37q-12 0 -10 13zM598 1370h170l211 338h-270z" />
<glyph unicode="&#xe2;" d="M51 102q-8 -43 17.5 -72.5t66.5 -29.5h641l213 1198q6 43 -18.5 72.5t-67.5 29.5h-538q-41 0 -77 -29.5t-42 -72.5l-51 -291q-8 -43 16.5 -72.5t67.5 -29.5h237l74 422q2 12 14 12h39q12 0 10 -12l-86 -484h-301q-41 0 -76.5 -29.5t-42.5 -72.5zM387 74l105 596 q2 12 14 12h39q12 0 10 -12l-106 -596q-2 -12 -15 -13h-37q-12 0 -10 13zM412 1366h131l129 147l78 -147h131l2 2l-176 338l-295 -338v-2z" />
<glyph unicode="&#xe3;" d="M49 102q-8 -43 16.5 -72.5t67.5 -29.5h641l211 1198q8 43 -16.5 72.5t-67.5 29.5h-539q-43 0 -77.5 -29.5t-42.5 -72.5l-52 -291q-6 -43 18.5 -72.5t65.5 -29.5h240l74 422q2 12 14 12h37q12 0 10 -12l-84 -484h-301q-43 0 -77.5 -29.5t-43.5 -72.5zM291 1468 q-8 -41 16.5 -71.5t67.5 -30.5h641l35 205q8 43 -16.5 72.5t-67.5 29.5h-641zM385 74l104 596q2 12 15 12h37q12 0 10 -12l-105 -596q-2 -12 -14 -13h-37q-12 0 -10 13z" />
<glyph unicode="&#xe4;" d="M51 102q-8 -43 16.5 -72.5t67.5 -29.5h641l211 1198q8 43 -16.5 72.5t-67.5 29.5h-538q-43 0 -78 -29.5t-43 -72.5l-51 -291q-6 -43 18.5 -72.5t64.5 -29.5h240l74 422q2 12 14 12h37q12 0 10 -12l-84 -484h-301q-43 0 -77.5 -29.5t-43.5 -72.5zM387 74l105 596 q2 12 14 12h37q12 0 10 -12l-104 -596q-2 -12 -15 -13h-37q-12 0 -10 13zM416 1470q-6 -43 18.5 -73.5t67.5 -30.5q45 0 81 30.5t42 73.5q8 45 -16.5 75t-69.5 30q-43 0 -79 -29.5t-44 -75.5zM702 1470q-8 -43 17.5 -73.5t68.5 -30.5t79 30.5t44 73.5q8 45 -17.5 75 t-68.5 30t-78.5 -29.5t-44.5 -75.5z" />
<glyph unicode="&#xe8;" d="M35 0h641q43 0 77.5 29.5t43.5 72.5l45 260q8 43 -16.5 73t-67.5 30h-238l-69 -391q-3 -13 -15 -13h-37q-12 0 -10 13l80 452h299q43 0 79 30t42 73l100 569q8 43 -16.5 72.5t-67.5 29.5h-538q-43 0 -78 -29.5t-43 -72.5zM481 600l111 623q2 12 14 12h37q12 0 10 -12 l-108 -623q-4 -12 -17 -12h-36q-12 0 -11 12zM494 1706l94 -340h168l10 340h-272z" />
<glyph unicode="&#xe9;" d="M35 0h641q43 0 77.5 29.5t43.5 72.5l45 260q8 43 -16.5 73t-67.5 30h-238l-69 -391q-3 -13 -15 -13h-37q-12 0 -10 13l80 452h299q43 0 79 30t42 73l100 569q8 43 -16.5 72.5t-67.5 29.5h-538q-43 0 -78 -29.5t-43 -72.5zM481 600l111 623q2 12 14 12h37q12 0 10 -12 l-110 -623q-2 -12 -15 -12h-36q-12 0 -11 12zM588 1366h170l213 340h-273z" />
<glyph unicode="&#xea;" d="M33 0h641q43 0 77.5 29.5t43.5 72.5l45 260q8 43 -16.5 73t-67.5 30h-238l-69 -391q-3 -13 -15 -13h-37q-12 0 -10 13l80 452h301q41 0 77 30t42 73l100 569q8 43 -16.5 72.5t-67.5 29.5h-538q-43 0 -78 -29.5t-43 -72.5zM412 1366h131l129 147l78 -147h131l2 2l-176 338 l-295 -338v-2zM479 600l111 623q2 12 14 12h37q12 0 10 -12l-108 -623q-2 -12 -15 -12h-39q-12 0 -10 12z" />
<glyph unicode="&#xeb;" d="M33 0h641q43 0 78.5 29.5t42.5 72.5l47 260q6 43 -18.5 73t-67.5 30h-238l-69 -391q-3 -13 -15 -13h-37q-12 0 -10 13l80 452h301q43 0 78 30t43 73l100 569q6 43 -18.5 72.5t-67.5 29.5h-538q-41 0 -77 -29.5t-42 -72.5zM418 1470q-8 -43 16.5 -73.5t69.5 -30.5 q43 0 79 30.5t44 73.5q6 45 -18.5 75t-67.5 30q-45 0 -81 -29.5t-42 -75.5zM479 600l111 623q2 12 14 12h37q12 0 10 -12l-108 -623q-2 -12 -15 -12h-39q-12 0 -10 12zM702 1470q-6 -43 18.5 -73.5t67.5 -30.5q45 0 81 30.5t42 73.5q8 45 -16.5 75t-69.5 30 q-43 0 -78.5 -29.5t-44.5 -75.5z" />
<glyph unicode="&#xec;" horiz-adv-x="436" d="M49 102q-8 -43 16.5 -72.5t67.5 -29.5h270l230 1300h-373zM299 1706l41 -340h270l-45 340h-266z" />
<glyph unicode="&#xed;" horiz-adv-x="436" d="M51 102q-8 -43 16.5 -72.5t67.5 -29.5h271l229 1300h-373zM307 1366h273l159 340h-266z" />
<glyph unicode="&#xee;" horiz-adv-x="436" d="M49 102q-8 -43 16.5 -72.5t67.5 -29.5h270l230 1300h-373zM223 1366h133l129 147l76 -147h131l2 2l-176 338l-295 -338v-2z" />
<glyph unicode="&#xef;" horiz-adv-x="436" d="M49 102q-6 -43 18.5 -72.5t65.5 -29.5h270l230 1300h-373zM229 1470q-8 -43 17.5 -73.5t68.5 -30.5t79 30.5t44 73.5q8 45 -17.5 75t-68.5 30t-78.5 -29.5t-44.5 -75.5zM516 1470q-8 -43 16.5 -73.5t69.5 -30.5q43 0 79 30.5t44 73.5q6 45 -18.5 75t-67.5 30 q-45 0 -81 -29.5t-42 -75.5z" />
<glyph unicode="&#xf1;" d="M33 0h338l215 1223q2 12 14 12h43q12 0 10 -12l-198 -1121q-8 -43 16.5 -72.5t67.5 -29.5h237l211 1198q8 43 -16.5 72.5t-67.5 29.5h-641zM291 1468q-8 -41 17.5 -71.5t66.5 -30.5h641l37 205q8 43 -16.5 72.5t-67.5 29.5h-641z" />
<glyph unicode="&#xf2;" d="M49 102q-8 -43 16.5 -72.5t67.5 -29.5h539q43 0 77.5 29.5t43.5 72.5l192 1096q8 43 -16.5 72.5t-67.5 29.5h-539q-43 0 -77.5 -29.5t-42.5 -72.5zM383 78l203 1145q2 12 14 12h41q12 0 10 -12l-202 -1145q-2 -12 -15 -12h-41q-12 0 -10 12zM494 1706l92 -340h170l8 340 h-270z" />
<glyph unicode="&#xf3;" d="M53 102q-8 -43 16.5 -72.5t67.5 -29.5h539q43 0 77.5 29.5t43.5 72.5l192 1096q8 43 -16.5 72.5t-67.5 29.5h-538q-43 0 -78 -29.5t-43 -72.5zM387 78l203 1145q2 12 14 12h41q12 0 10 -12l-202 -1145q-2 -12 -15 -12h-41q-12 0 -10 12zM592 1366h168l213 340h-273z" />
<glyph unicode="&#xf4;" d="M51 102q-8 -43 16.5 -72.5t67.5 -29.5h539q43 0 77.5 29.5t43.5 72.5l192 1096q8 43 -16.5 72.5t-67.5 29.5h-538q-43 0 -78 -29.5t-43 -72.5zM385 78l203 1145q2 12 14 12h41q12 0 10 -12l-202 -1145q-2 -12 -15 -12h-41q-12 0 -10 12zM410 1368l2 -2h131l129 147 l76 -147h133v2l-174 338z" />
<glyph unicode="&#xf5;" d="M49 102q-8 -43 16.5 -72.5t67.5 -29.5h539q43 0 77.5 29.5t43.5 72.5l192 1096q8 43 -16.5 72.5t-67.5 29.5h-539q-43 0 -77.5 -29.5t-42.5 -72.5zM291 1468q-8 -41 16.5 -71.5t67.5 -30.5h641l35 205q8 43 -16.5 72.5t-67.5 29.5h-641zM383 78l203 1145q2 12 14 12h41 q12 0 10 -12l-202 -1145q-2 -12 -15 -12h-41q-12 0 -10 12z" />
<glyph unicode="&#xf6;" d="M51 102q-8 -43 16.5 -72.5t67.5 -29.5h539q43 0 77.5 29.5t43.5 72.5l192 1096q8 43 -16.5 72.5t-67.5 29.5h-538q-43 0 -78 -29.5t-43 -72.5zM385 78l203 1145q2 12 14 12h41q12 0 10 -12l-202 -1145q-2 -12 -15 -12h-41q-12 0 -10 12zM416 1470q-6 -43 18.5 -73.5 t67.5 -30.5q45 0 81 30.5t42 73.5q8 45 -16.5 75t-69.5 30q-43 0 -79 -29.5t-44 -75.5zM702 1470q-8 -43 17.5 -73.5t68.5 -30.5t79 30.5t44 73.5q8 45 -17.5 75t-68.5 30t-78.5 -29.5t-44.5 -75.5z" />
<glyph unicode="&#xf9;" d="M51 102q-8 -43 16.5 -72.5t67.5 -29.5h539q43 0 77.5 29.5t43.5 72.5l192 1096q8 43 -16.5 72.5t-67.5 29.5h-235l-215 -1222q-4 -12 -15 -12h-43q-12 0 -10 12l199 1120q8 43 -16.5 72.5t-67.5 29.5h-238zM473 1706l94 -340h168l10 340h-272z" />
<glyph unicode="&#xfa;" d="M51 102q-8 -43 16.5 -72.5t67.5 -29.5h541q41 0 75.5 29.5t43.5 72.5l194 1096q6 43 -18.5 72.5t-65.5 29.5h-237l-215 -1222q-2 -12 -15 -12h-43q-12 0 -8 12l197 1120q8 43 -16.5 72.5t-67.5 29.5h-238zM559 1366h170l213 340h-272z" />
<glyph unicode="&#xfb;" d="M53 102q-8 -43 16.5 -72.5t67.5 -29.5h539q43 0 77.5 29.5t43.5 72.5l192 1096q8 43 -16.5 72.5t-67.5 29.5h-237l-215 -1222q-2 -12 -15 -12h-41q-12 0 -10 12l199 1120q6 43 -18.5 72.5t-67.5 29.5h-236zM412 1366h133l129 147l76 -147h133v2l-176 338l-295 -338v-2z " />
<glyph unicode="&#xfc;" d="M51 102q-8 -43 16.5 -72.5t67.5 -29.5h539q43 0 77.5 29.5t43.5 72.5l192 1096q8 43 -16.5 72.5t-67.5 29.5h-235l-217 -1222q-2 -12 -15 -12h-41q-12 0 -10 12l199 1120q6 43 -18.5 72.5t-65.5 29.5h-238zM416 1470q-6 -43 18.5 -73.5t67.5 -30.5q45 0 81 30.5t42 73.5 q8 45 -16.5 75t-69.5 30q-43 0 -79 -29.5t-44 -75.5zM702 1470q-8 -43 17.5 -73.5t68.5 -30.5t79 30.5t44 73.5q8 45 -17.5 75t-68.5 30t-78.5 -29.5t-44.5 -75.5z" />
<glyph unicode="&#xfd;" d="M-16 -268q-8 -41 16.5 -72t67.5 -31h540q43 0 78 31t43 72l279 1575h-240q-43 0 -79 -30t-42 -73l-201 -1130q-2 -12 -14 -13h-37q-12 0 -10 13l217 1233h-240q-43 0 -77.5 -30t-42.5 -73l-195 -1102q-6 -43 18.5 -72.5t67.5 -29.5h301l-51 -291q-2 -12 -14 -12h-37 q-12 0 -10 12l38 225h-239q-43 0 -78 -29.5t-43 -72.5zM575 1372h168l213 340h-272z" />
<glyph unicode="&#xff;" d="M-16 -272q-8 -43 16.5 -73t67.5 -30h540q43 0 79 30t42 73l279 1572h-240q-43 0 -78 -29.5t-43 -72.5l-198 -1128q-2 -12 -15 -13h-39q-12 0 -10 13l217 1230h-240q-43 0 -77.5 -29.5t-42.5 -72.5l-193 -1100q-8 -43 16.5 -72.5t67.5 -29.5h301l-51 -293q-2 -12 -14 -12 h-37q-12 0 -10 12l38 225h-239q-43 0 -78 -29.5t-43 -72.5zM416 1473q-8 -45 17.5 -75t68.5 -30t79 30t44 75q8 43 -17.5 73.5t-68.5 30.5t-79 -30.5t-44 -73.5zM702 1473q-8 -45 17.5 -75t68.5 -30t79 30t44 75q8 43 -17.5 73.5t-68.5 30.5t-78.5 -30.5t-44.5 -73.5z" />
<glyph unicode="&#x178;" d="M51 102q-8 -43 16.5 -72.5t67.5 -29.5h537q43 0 78.5 29.5t44.5 72.5l276 1567h-237q-43 0 -79 -30.5t-44 -73.5l-197 -1125q-2 -10 -12 -10h-43q-10 0 -8 10l217 1229h-238q-43 0 -78 -30.5t-43 -73.5l-192 -1094q-8 -43 16.5 -72.5t67.5 -29.5h299l-51 -293 q-2 -10 -13 -10h-41q-10 0 -8 10l39 227h-238q-43 0 -77.5 -30.5t-42.5 -73.5zM481 1843q-8 -43 17.5 -73.5t68.5 -30.5t79 30.5t44 73.5t-17.5 74t-68.5 31t-79 -31t-44 -74zM768 1843q-8 -43 17.5 -73.5t68.5 -30.5t79 30.5t44 73.5t-17.5 74t-68.5 31t-79 -31t-44 -74z " />
<glyph unicode="&#x2c6;" horiz-adv-x="1118" d="M563 1368h133l127 148l78 -148h131h2l-176 338z" />
<glyph unicode="&#x2dc;" d="M291 1468q-6 -43 18.5 -72.5t67.5 -29.5h641l35 205q8 41 -16.5 71.5t-67.5 30.5h-641z" />
<glyph unicode="&#x2000;" horiz-adv-x="1041" />
<glyph unicode="&#x2001;" horiz-adv-x="2083" />
<glyph unicode="&#x2002;" horiz-adv-x="1041" />
<glyph unicode="&#x2003;" horiz-adv-x="2083" />
<glyph unicode="&#x2004;" horiz-adv-x="694" />
<glyph unicode="&#x2005;" horiz-adv-x="520" />
<glyph unicode="&#x2006;" horiz-adv-x="347" />
<glyph unicode="&#x2007;" horiz-adv-x="347" />
<glyph unicode="&#x2008;" horiz-adv-x="260" />
<glyph unicode="&#x2009;" horiz-adv-x="416" />
<glyph unicode="&#x200a;" horiz-adv-x="115" />
<glyph unicode="&#x2010;" horiz-adv-x="751" d="M113 471h688l59 340h-686z" />
<glyph unicode="&#x2011;" horiz-adv-x="751" d="M113 471h688l59 340h-686z" />
<glyph unicode="&#x2012;" horiz-adv-x="751" d="M113 471h688l59 340h-686z" />
<glyph unicode="&#x2013;" horiz-adv-x="1028" d="M113 471h943l81 340h-940z" />
<glyph unicode="&#x2014;" horiz-adv-x="2052" d="M113 471h1886l162 340h-1881z" />
<glyph unicode="&#x2026;" horiz-adv-x="1210" d="M27 0h340l59 338h-340zM432 0h338l61 338h-339zM838 0h338l59 338h-338z" />
<glyph unicode="&#x202f;" horiz-adv-x="416" />
<glyph unicode="&#x205f;" horiz-adv-x="520" />
<glyph unicode="&#x25fc;" horiz-adv-x="1300" d="M0 0v1300h1300v-1300h-1300z" />
</font>
</defs>
</svg>
